<?xml version="1.0" encoding="UTF-8" standalone="no"?>
<!DOCTYPE svg PUBLIC "-//W3C//DTD SVG 1.1//EN"
 "http://www.w3.org/Graphics/SVG/1.1/DTD/svg11.dtd">
<!-- Generated by graphviz version 2.43.0 (0)
 -->
<!-- Title: G Pages: 1 -->
<svg width="749pt" height="206pt"
 viewBox="0.00 0.00 748.65 206.00" xmlns="http://www.w3.org/2000/svg" xmlns:xlink="http://www.w3.org/1999/xlink">
<g id="graph0" class="graph" transform="scale(1 1) rotate(0) translate(4 202)">
<title>G</title>
<!-- jpg_decoder -->
<g id="node1" class="node">
<title>jpg_decoder</title>
<ellipse fill="none" stroke="#ffa500" cx="95.54" cy="-18" rx="66.89" ry="18"/>
<text text-anchor="middle" x="95.54" y="-14.3" font-family="Times,serif" font-size="14.00" fill="#ffa500">jpg_decoder</text>
</g>
<!-- preprocessor -->
<g id="node2" class="node">
<title>preprocessor</title>
<ellipse fill="none" stroke="#ffa500" cx="325.22" cy="-18" rx="71.49" ry="18"/>
<text text-anchor="middle" x="325.22" y="-14.3" font-family="Times,serif" font-size="14.00" fill="#ffa500">preprocessor</text>
</g>
<!-- jpg_decoder&#45;&gt;preprocessor -->
<g id="edge1" class="edge">
<title>jpg_decoder&#45;&gt;preprocessor</title>
<path fill="none" stroke="#ffa500" d="M162.7,-18C187.97,-18 217.05,-18 243.52,-18"/>
<polygon fill="#ffa500" stroke="#ffa500" points="243.53,-21.5 253.53,-18 243.53,-14.5 243.53,-21.5"/>
</g>
<!-- dbnet -->
<g id="node3" class="node">
<title>dbnet</title>
<ellipse fill="none" stroke="#ffa500" cx="497.06" cy="-18" rx="37.89" ry="18"/>
<text text-anchor="middle" x="497.06" y="-14.3" font-family="Times,serif" font-size="14.00" fill="#ffa500">dbnet</text>
</g>
<!-- preprocessor&#45;&gt;dbnet -->
<g id="edge2" class="edge">
<title>preprocessor&#45;&gt;dbnet</title>
<path fill="none" stroke="#ffa500" d="M396.78,-18C414.42,-18 432.92,-18 449.1,-18"/>
<polygon fill="#ffa500" stroke="#ffa500" points="449.36,-21.5 459.36,-18 449.36,-14.5 449.36,-21.5"/>
</g>
<!-- recog -->
<g id="node4" class="node">
<title>recog</title>
<ellipse fill="none" stroke="#ffa500" cx="607.16" cy="-18" rx="36.29" ry="18"/>
<text text-anchor="middle" x="607.16" y="-14.3" font-family="Times,serif" font-size="14.00" fill="#ffa500">recog</text>
</g>
<!-- dbnet&#45;&gt;recog -->
<g id="edge3" class="edge">
<title>dbnet&#45;&gt;recog</title>
<path fill="none" stroke="#ffa500" d="M534.96,-18C543.13,-18 551.89,-18 560.37,-18"/>
<polygon fill="#ffa500" stroke="#ffa500" points="560.52,-21.5 570.52,-18 560.52,-14.5 560.52,-21.5"/>
</g>
<!-- final -->
<g id="node11" class="node">
<title>final</title>
<ellipse fill="none" stroke="#ffa500" cx="710.1" cy="-18" rx="30.59" ry="18"/>
<text text-anchor="middle" x="710.1" y="-14.3" font-family="Times,serif" font-size="14.00" fill="#ffa500">final</text>
</g>
<!-- recog&#45;&gt;final -->
<g id="edge4" class="edge">
<title>recog&#45;&gt;final</title>
<path fill="none" stroke="#ffa500" d="M643.74,-18C652.06,-18 660.96,-18 669.44,-18"/>
<polygon fill="#ffa500" stroke="#ffa500" points="669.5,-21.5 679.5,-18 669.5,-14.5 669.5,-21.5"/>
</g>
<!-- crop -->
<g id="node5" class="node">
<title>crop</title>
<ellipse fill="none" stroke="#ffa500" cx="95.54" cy="-72" rx="31.4" ry="18"/>
<text text-anchor="middle" x="95.54" y="-68.3" font-family="Times,serif" font-size="14.00" fill="#ffa500">crop</text>
</g>
<!-- ocr_cls_preprocess -->
<g id="node6" class="node">
<title>ocr_cls_preprocess</title>
<ellipse fill="none" stroke="#ffa500" cx="325.22" cy="-72" rx="98.28" ry="18"/>
<text text-anchor="middle" x="325.22" y="-68.3" font-family="Times,serif" font-size="14.00" fill="#ffa500">ocr_cls_preprocess</text>
</g>
<!-- crop&#45;&gt;ocr_cls_preprocess -->
<g id="edge5" class="edge">
<title>crop&#45;&gt;ocr_cls_preprocess</title>
<path fill="none" stroke="#ffa500" d="M126.78,-72C150.07,-72 183.78,-72 216.76,-72"/>
<polygon fill="#ffa500" stroke="#ffa500" points="216.97,-75.5 226.97,-72 216.97,-68.5 216.97,-75.5"/>
</g>
<!-- cls -->
<g id="node7" class="node">
<title>cls</title>
<ellipse fill="none" stroke="#ffa500" cx="497.06" cy="-72" rx="27" ry="18"/>
<text text-anchor="middle" x="497.06" y="-68.3" font-family="Times,serif" font-size="14.00" fill="#ffa500">cls</text>
</g>
<!-- ocr_cls_preprocess&#45;&gt;cls -->
<g id="edge6" class="edge">
<title>ocr_cls_preprocess&#45;&gt;cls</title>
<path fill="none" stroke="#ffa500" d="M423.54,-72C436.33,-72 448.73,-72 459.56,-72"/>
<polygon fill="#ffa500" stroke="#ffa500" points="459.81,-75.5 469.81,-72 459.81,-68.5 459.81,-75.5"/>
</g>
<!-- main -->
<g id="node9" class="node">
<title>main</title>
<ellipse fill="none" stroke="#ffa500" cx="607.16" cy="-72" rx="33.6" ry="18"/>
<text text-anchor="middle" x="607.16" y="-68.3" font-family="Times,serif" font-size="14.00" fill="#ffa500">main</text>
</g>
<!-- cls&#45;&gt;main -->
<g id="edge7" class="edge">
<title>cls&#45;&gt;main</title>
<path fill="none" stroke="#ffa500" d="M524.23,-72C535.86,-72 549.87,-72 562.99,-72"/>
<polygon fill="#ffa500" stroke="#ffa500" points="563.26,-75.5 573.26,-72 563.26,-68.5 563.26,-75.5"/>
</g>
<!-- independent_node -->
<g id="node8" class="node">
<title>independent_node</title>
<ellipse fill="none" stroke="#ffa500" cx="95.54" cy="-126" rx="95.58" ry="18"/>
<text text-anchor="middle" x="95.54" y="-122.3" font-family="Times,serif" font-size="14.00" fill="#ffa500">independent_node</text>
</g>
<!-- rec -->
<g id="node10" class="node">
<title>rec</title>
<ellipse fill="none" stroke="#ffa500" cx="95.54" cy="-180" rx="27" ry="18"/>
<text text-anchor="middle" x="95.54" y="-176.3" font-family="Times,serif" font-size="14.00" fill="#ffa500">rec</text>
</g>
</g>
</svg>
